<svg width="435" height="140" viewBox="0 0 435 140" fill="none" xmlns="http://www.w3.org/2000/svg">
<g clip-path="url(#clip0_1_807)">
<path fill-rule="evenodd" clip-rule="evenodd" d="M413.594 139.995V83.397C413.594 67.798 403.995 60.398 391.195 60.398C378.996 60.398 369.796 68.598 364.396 76.397V139.995H342.997V43.998H361.996V57.198C368.996 48.798 380.795 41.399 395.395 41.399C419.594 41.399 434.993 57.798 434.993 80.597V139.995H413.594ZM305.198 25.599C298.198 25.599 291.998 21.599 291.998 12.8C291.998 4.4 298.198 0.2 305.198 0.2C312.197 0.2 318.197 4.4 318.197 12.8C318.197 21.599 312.197 25.599 305.198 25.599ZM200.597 61.998H268.594V83.197H200.597V139.995H177.798V0H274.394V20.999H200.597V61.998ZM111.797 139.995H88.998V20.999H42.599V0H157.995V20.999H111.797V139.995ZM0 0H22.799V139.995H0V0ZM315.797 139.995H294.398V43.998H315.797V139.995Z" fill="black"/>
</g>
<defs>
<clipPath id="clip0_1_807">
<rect width="434.993" height="139.995" fill="white"/>
</clipPath>
</defs>
</svg>
